<mxfile host="app.diagrams.net" modified="2023-06-06T02:21:12.677Z" agent="Mozilla/5.0 (Windows NT 10.0; Win64; x64) AppleWebKit/537.36 (KHTML, like Gecko) Chrome/114.0.0.0 Safari/537.36" etag="o28-zkw-L8mBjDbXqjjH" version="21.3.4" type="device">
  <diagram name="PÃ¡gina-1" id="UXpAImC7YdL794eruHuL">
    <mxGraphModel dx="1050" dy="549" grid="1" gridSize="10" guides="1" tooltips="1" connect="1" arrows="1" fold="1" page="1" pageScale="1" pageWidth="827" pageHeight="1169" math="0" shadow="0">
      <root>
        <mxCell id="0" />
        <mxCell id="1" parent="0" />
        <mxCell id="7000dhiGf1yG2yE8n6aX-1" value="ALUNO" style="swimlane;childLayout=stackLayout;horizontal=1;startSize=50;horizontalStack=0;rounded=1;fontSize=14;fontStyle=0;strokeWidth=2;resizeParent=0;resizeLast=1;shadow=0;dashed=0;align=center;arcSize=4;whiteSpace=wrap;html=1;fillColor=#dae8fc;strokeColor=#6c8ebf;" vertex="1" parent="1">
          <mxGeometry x="360" y="40" width="240" height="120" as="geometry">
            <mxRectangle x="240" y="80" width="80" height="50" as="alternateBounds" />
          </mxGeometry>
        </mxCell>
        <mxCell id="7000dhiGf1yG2yE8n6aX-2" value="+MATRICULA:string&lt;br&gt;+ID_CURSO:string&lt;br&gt;+NOME_COMPLETO:string" style="align=left;strokeColor=none;fillColor=none;spacingLeft=4;fontSize=12;verticalAlign=top;resizable=0;rotatable=0;part=1;html=1;" vertex="1" parent="7000dhiGf1yG2yE8n6aX-1">
          <mxGeometry y="50" width="240" height="70" as="geometry" />
        </mxCell>
        <mxCell id="7000dhiGf1yG2yE8n6aX-3" value="CURSO" style="swimlane;childLayout=stackLayout;horizontal=1;startSize=50;horizontalStack=0;rounded=1;fontSize=14;fontStyle=0;strokeWidth=2;resizeParent=0;resizeLast=1;shadow=0;dashed=0;align=center;arcSize=4;whiteSpace=wrap;html=1;fillColor=#dae8fc;strokeColor=#6c8ebf;" vertex="1" parent="1">
          <mxGeometry x="80" y="200" width="240" height="120" as="geometry">
            <mxRectangle x="80" y="200" width="80" height="50" as="alternateBounds" />
          </mxGeometry>
        </mxCell>
        <mxCell id="7000dhiGf1yG2yE8n6aX-4" value="+ID_CURSO:string&lt;br&gt;+NOME:string" style="align=left;strokeColor=none;fillColor=none;spacingLeft=4;fontSize=12;verticalAlign=top;resizable=0;rotatable=0;part=1;html=1;" vertex="1" parent="7000dhiGf1yG2yE8n6aX-3">
          <mxGeometry y="50" width="240" height="70" as="geometry" />
        </mxCell>
        <mxCell id="7000dhiGf1yG2yE8n6aX-5" value="DISCIPLINA" style="swimlane;childLayout=stackLayout;horizontal=1;startSize=50;horizontalStack=0;rounded=1;fontSize=14;fontStyle=0;strokeWidth=2;resizeParent=0;resizeLast=1;shadow=0;dashed=0;align=center;arcSize=4;whiteSpace=wrap;html=1;fillColor=#dae8fc;strokeColor=#6c8ebf;" vertex="1" parent="1">
          <mxGeometry x="360" y="400" width="240" height="120" as="geometry">
            <mxRectangle x="240" y="80" width="80" height="50" as="alternateBounds" />
          </mxGeometry>
        </mxCell>
        <mxCell id="7000dhiGf1yG2yE8n6aX-6" value="+ID_DISCIPLINA:string&lt;br&gt;+ID_CURSO:string&lt;br&gt;+CARGA_HORARIA:number&lt;br&gt;+NOME:string" style="align=left;strokeColor=none;fillColor=none;spacingLeft=4;fontSize=12;verticalAlign=top;resizable=0;rotatable=0;part=1;html=1;" vertex="1" parent="7000dhiGf1yG2yE8n6aX-5">
          <mxGeometry y="50" width="240" height="70" as="geometry" />
        </mxCell>
        <mxCell id="7000dhiGf1yG2yE8n6aX-7" value="REQUISICAO" style="swimlane;childLayout=stackLayout;horizontal=1;startSize=50;horizontalStack=0;rounded=1;fontSize=14;fontStyle=0;strokeWidth=2;resizeParent=0;resizeLast=1;shadow=0;dashed=0;align=center;arcSize=4;whiteSpace=wrap;html=1;fillColor=#dae8fc;strokeColor=#6c8ebf;" vertex="1" parent="1">
          <mxGeometry x="640" y="200" width="240" height="160" as="geometry">
            <mxRectangle x="240" y="80" width="80" height="50" as="alternateBounds" />
          </mxGeometry>
        </mxCell>
        <mxCell id="7000dhiGf1yG2yE8n6aX-8" value="+MATRICULA:string&lt;br&gt;+DATA_CADASTRO:datetime&lt;br&gt;+ESTRUTURA_CURRICULAR:string&lt;br&gt;+ID_DISCIPLINAS:array&lt;br&gt;+SITUACAO:string" style="align=left;strokeColor=none;fillColor=none;spacingLeft=4;fontSize=12;verticalAlign=top;resizable=0;rotatable=0;part=1;html=1;" vertex="1" parent="7000dhiGf1yG2yE8n6aX-7">
          <mxGeometry y="50" width="240" height="110" as="geometry" />
        </mxCell>
        <mxCell id="7000dhiGf1yG2yE8n6aX-10" style="edgeStyle=orthogonalEdgeStyle;rounded=0;orthogonalLoop=1;jettySize=auto;html=1;exitX=0;exitY=0.25;exitDx=0;exitDy=0;entryX=0.5;entryY=0;entryDx=0;entryDy=0;startArrow=ERzeroToMany;startFill=0;endArrow=none;endFill=0;" edge="1" parent="1" source="7000dhiGf1yG2yE8n6aX-2" target="7000dhiGf1yG2yE8n6aX-3">
          <mxGeometry relative="1" as="geometry" />
        </mxCell>
        <mxCell id="7000dhiGf1yG2yE8n6aX-11" style="edgeStyle=orthogonalEdgeStyle;rounded=0;orthogonalLoop=1;jettySize=auto;html=1;exitX=1;exitY=0.5;exitDx=0;exitDy=0;entryX=0.5;entryY=0;entryDx=0;entryDy=0;endArrow=ERoneToMany;endFill=0;" edge="1" parent="1" source="7000dhiGf1yG2yE8n6aX-2" target="7000dhiGf1yG2yE8n6aX-7">
          <mxGeometry relative="1" as="geometry" />
        </mxCell>
        <mxCell id="7000dhiGf1yG2yE8n6aX-12" style="edgeStyle=orthogonalEdgeStyle;rounded=0;orthogonalLoop=1;jettySize=auto;html=1;exitX=0.5;exitY=1;exitDx=0;exitDy=0;entryX=1;entryY=0.5;entryDx=0;entryDy=0;endArrow=ERoneToMany;endFill=0;startArrow=ERzeroToMany;startFill=0;" edge="1" parent="1" source="7000dhiGf1yG2yE8n6aX-8" target="7000dhiGf1yG2yE8n6aX-6">
          <mxGeometry relative="1" as="geometry" />
        </mxCell>
        <mxCell id="7000dhiGf1yG2yE8n6aX-13" style="edgeStyle=orthogonalEdgeStyle;rounded=0;orthogonalLoop=1;jettySize=auto;html=1;exitX=0;exitY=0.25;exitDx=0;exitDy=0;entryX=0.5;entryY=1;entryDx=0;entryDy=0;endArrow=none;endFill=0;startArrow=ERzeroToMany;startFill=0;" edge="1" parent="1" source="7000dhiGf1yG2yE8n6aX-6" target="7000dhiGf1yG2yE8n6aX-4">
          <mxGeometry relative="1" as="geometry" />
        </mxCell>
      </root>
    </mxGraphModel>
  </diagram>
</mxfile>
